PathFileType   4   (X/Y/Z)
DataRate	CameraRate	NumFrames	NumMarkers	Units	OrigDataRate	OrigDataStartFrame	OrigNumFrames
120.0	120.0	12	37	mm	120.0	20	156
Frame#	Time	midhip	hip_r	hip_l	knee_r	knee_l	ankle_r	ankle_l	midasis	asis_r	asis_l	psis_r	psis_l	epicondLat_r	epicondLat_l	epicondMed_r	epicondMed_l	malleolusLat_r	malleolusLat_l	malleolusMedv_r	malleolusMedv_l	neck	subclavicle_r	subclavicle_l	sternalnotch	xyphoidprocess	thighwand_r	thighwand_l	upperleg1_r	upperleg1_l	upperleg2_r	upperleg2_l	shankwand_r	shankwand_l	lowerleg1_r	lowerleg1_l	toe_r	toe_l
 	 	X1	Y1	Z1	X2	Y2	Z2	X3	Y3	Z3	X4	Y4	Z4	X5	Y5	Z5	X6	Y6	Z6	X7	Y7	Z7	X8	Y8	Z8	X9	Y9	Z9	X10	Y10	Z10	X11	Y11	Z11	X12	Y12	Z12	X13	Y13	Z13	X14	Y14	Z14	X15	Y15	Z15	X16	Y16	Z16	X17	Y17	Z17	X18	Y18	Z18	X19	Y19	Z19	X20	Y20	Z20	X21	Y21	Z21	X22	Y22	Z22	X23	Y23	Z23	X24	Y24	Z24	X25	Y25	Z25	X26	Y26	Z26	X27	Y27	Z27	X28	Y28	Z28	X29	Y29	Z29	X30	Y30	Z30	X31	Y31	Z31	X32	Y32	Z32	X33	Y33	Z33	X34	Y34	Z34	X35	Y35	Z35	X36	Y36	Z36	X37	Y37	Z37

	20	0.42500	1506.271	827.648	-289.166	1499.115	807.809	-212.991	1483.956	811.285	-364.321	1587.347	438.514	-173.883	1519.889	429.720	-343.271	1347.863	163.927	-182.809	1476.932	66.730	-310.595	1584.819	879.711	-293.333	1592.726	877.058	-175.438	1576.913	882.363	-411.228	1394.094	946.910	-245.329	1386.852	944.483	-299.658	1594.238	446.205	-116.809	1523.092	426.831	-401.111	1591.767	430.545	-232.630	1537.609	442.099	-283.399	1334.813	174.125	-146.400	1462.708	65.051	-347.942	1363.561	161.323	-214.666	1488.386	77.002	-286.328	1464.966	1379.977	-287.924	1596.277	1319.720	-245.902	1588.607	1312.722	-351.946	1589.154	1312.975	-297.873	1629.336	1243.786	-300.118	1718.254	602.680	-216.840	1544.592	552.946	-498.330	1648.537	641.396	-157.680	1485.614	602.656	-439.800	1655.702	553.937	-150.703	1501.308	516.500	-422.167	1376.212	240.562	-75.782	1581.883	183.267	-316.319	1386.242	244.490	-117.977	1540.213	185.757	-323.642	1396.585	78.833	-147.951	1578.784	41.377	-347.930
	21	0.43333	1510.893	827.567	-290.175	1504.027	807.989	-213.407	1488.993	811.111	-364.758	1598.260	439.726	-174.891	1522.400	429.446	-343.090	1365.572	159.551	-184.431	1476.959	66.733	-310.196	1589.870	879.606	-293.855	1597.678	877.233	-175.959	1582.062	881.980	-411.751	1399.153	947.109	-246.009	1391.843	944.629	-300.368	1605.143	447.456	-117.822	1525.581	426.441	-400.924	1602.122	432.788	-233.811	1539.746	441.447	-283.145	1352.203	169.415	-148.044	1462.981	65.088	-347.638	1381.625	156.519	-216.004	1489.110	76.854	-286.248	1470.754	1379.863	-288.545	1601.939	1319.318	-246.804	1594.359	1312.532	-352.439	1594.910	1312.784	-298.507	1634.935	1243.436	-300.911	1726.164	606.110	-217.877	1547.876	552.331	-498.250	1656.422	643.957	-157.993	1488.734	602.522	-439.297	1664.941	556.617	-151.650	1503.957	516.316	-421.818	1391.888	236.870	-77.270	1582.850	182.598	-315.351	1402.126	240.661	-119.761	1540.866	185.487	-322.685	1417.620	76.716	-149.504	1579.060	41.440	-347.688
	22	0.44167	1515.232	827.083	-290.990	1508.940	808.105	-213.812	1494.019	810.906	-365.180	1608.955	440.947	-175.911	1524.809	429.116	-342.805	1383.571	155.004	-185.994	1476.976	66.784	-309.776	1594.911	879.461	-294.356	1602.630	877.341	-176.445	1587.191	881.580	-412.266	1404.215	947.249	-246.635	1396.779	944.729	-301.036	1615.778	448.697	-118.838	1527.996	425.984	-400.632	1613.571	434.095	-232.978	1541.300	441.563	-282.884	1369.938	164.467	-149.599	1463.197	65.183	-347.294	1399.705	152.116	-217.409	1488.575	76.385	-285.899	1476.207	1380.020	-288.956	1607.685	1319.299	-247.624	1600.485	1312.112	-352.782	1600.686	1312.587	-299.128	1640.863	1243.206	-301.072	1733.969	609.500	-218.761	1551.163	551.728	-498.130	1664.168	646.880	-158.647	1492.265	602.620	-439.115	1674.600	559.402	-151.963	1506.431	517.161	-421.746	1407.919	232.904	-78.668	1583.841	181.942	-314.445	1418.436	237.280	-121.405	1542.192	185.197	-321.556	1438.991	74.491	-151.024	1579.334	41.491	-347.415
	23	0.45000	1520.502	827.443	-291.883	1513.878	808.171	-214.177	1499.030	810.660	-365.558	1619.453	442.180	-176.940	1527.101	428.743	-342.445	1401.899	150.327	-187.491	1476.991	66.868	-309.338	1599.944	879.285	-294.834	1607.609	877.411	-176.897	1592.280	881.158	-412.771	1409.284	947.323	-247.201	1401.680	944.769	-301.652	1626.176	449.928	-119.855	1530.325	425.481	-400.263	1624.421	435.324	-233.584	1542.297	441.582	-282.589	1388.058	159.327	-151.057	1463.357	65.318	-346.911	1417.436	148.547	-219.178	1487.775	75.964	-285.299	1482.000	1380.187	-289.422	1613.545	1319.524	-248.338	1606.613	1311.753	-353.059	1606.489	1312.385	-299.711	1646.856	1243.134	-301.059	1741.672	612.824	-219.501	1554.459	551.135	-497.978	1671.653	649.164	-159.555	1496.589	602.555	-439.480	1683.563	561.496	-152.773	1509.106	517.604	-421.898	1424.329	228.690	-79.975	1584.854	181.295	-313.631	1434.415	233.841	-122.694	1544.194	184.860	-320.327	1460.672	72.221	-152.489	1579.588	41.516	-347.138
	24	0.45833	1525.614	827.682	-292.961	1518.853	808.191	-214.485	1504.022	810.368	-365.873	1629.803	443.423	-177.973	1529.276	428.356	-342.057	1420.579	145.566	-188.914	1477.016	66.962	-308.889	1604.974	879.076	-295.284	1612.627	877.449	-177.314	1597.321	880.704	-413.254	1414.367	947.329	-247.696	1406.599	944.739	-302.203	1636.395	451.144	-120.868	1532.573	424.970	-399.864	1635.391	436.453	-235.456	1548.414	441.000	-282.711	1406.590	154.052	-152.413	1463.475	65.469	-346.498	1435.804	144.932	-220.873	1487.997	75.893	-284.631	1488.215	1380.358	-290.135	1619.381	1319.401	-248.820	1612.526	1311.739	-353.703	1612.340	1312.189	-300.242	1652.533	1242.966	-301.654	1749.275	616.055	-220.107	1557.773	550.552	-497.807	1678.322	650.694	-160.236	1500.433	601.934	-439.547	1691.798	563.420	-153.810	1513.733	516.171	-421.760	1441.133	224.261	-81.186	1585.875	180.655	-312.921	1450.465	229.768	-123.618	1545.494	183.982	-319.750	1482.631	69.958	-153.896	1579.811	41.515	-346.879
	25	0.46667	1530.106	827.225	-293.856	1523.865	808.165	-214.735	1508.994	810.034	-366.123	1640.048	444.667	-179.006	1531.348	427.991	-341.683	1439.656	140.755	-190.246	1477.063	67.044	-308.447	1610.005	878.832	-295.705	1617.690	877.445	-177.707	1602.319	880.217	-413.702	1419.464	947.269	-248.121	1411.607	944.635	-302.680	1646.487	452.340	-121.878	1534.749	424.493	-399.478	1646.811	436.844	-235.734	1550.798	442.478	-281.198	1425.567	148.692	-153.660	1463.577	65.607	-346.078	1454.910	140.693	-222.319	1488.341	76.071	-283.963	1494.293	1380.443	-290.827	1625.086	1318.699	-248.968	1618.057	1311.852	-354.737	1618.216	1311.976	-300.719	1657.803	1242.503	-302.854	1756.765	619.167	-220.591	1561.101	549.984	-497.627	1684.801	651.917	-160.852	1503.524	601.235	-439.479	1700.079	565.436	-154.203	1516.461	517.160	-421.198	1458.318	219.672	-82.296	1586.874	180.026	-312.317	1467.160	225.178	-124.587	1546.501	183.431	-319.624	1504.824	67.739	-155.251	1579.993	41.492	-346.658
	26	0.47500	1534.868	826.782	-294.209	1528.917	808.092	-214.938	1513.961	809.667	-366.321	1650.201	445.905	-180.045	1533.341	427.675	-341.354	1459.148	135.921	-191.467	1477.142	67.086	-308.042	1615.047	878.553	-296.097	1622.801	877.397	-178.082	1607.294	879.708	-414.112	1424.578	947.142	-248.481	1416.719	944.471	-303.088	1656.471	453.511	-122.889	1536.860	424.077	-399.135	1656.643	438.170	-236.929	1551.782	442.202	-280.482	1444.993	143.294	-154.788	1463.691	65.705	-345.687	1474.390	136.077	-223.633	1487.906	76.286	-283.288	1500.252	1380.092	-291.203	1630.849	1318.253	-249.222	1623.796	1311.576	-355.368	1624.066	1311.710	-301.169	1663.491	1242.113	-303.422	1764.125	622.146	-220.975	1564.415	549.436	-497.441	1691.608	653.319	-160.944	1506.293	601.231	-439.541	1708.050	567.132	-154.717	1518.927	516.314	-420.811	1475.862	214.981	-83.299	1587.822	179.418	-311.807	1484.390	220.474	-125.804	1547.686	183.329	-319.505	1527.201	65.597	-156.570	1580.130	41.456	-346.488
	27	0.48333	1539.858	826.272	-293.963	1534.011	807.977	-215.113	1518.945	809.281	-366.487	1660.245	447.126	-181.097	1535.283	427.415	-341.083	1479.054	131.085	-192.557	1477.251	67.077	-307.698	1620.115	878.247	-296.466	1627.956	877.305	-178.439	1612.274	879.190	-414.492	1429.716	946.948	-248.777	1421.943	944.267	-303.430	1666.335	454.647	-123.910	1538.913	423.727	-398.851	1664.753	440.705	-238.886	1552.974	440.280	-281.414	1464.855	137.892	-155.786	1463.832	65.749	-345.356	1493.722	132.036	-225.026	1487.927	76.347	-282.842	1505.946	1379.683	-291.552	1636.979	1318.268	-249.765	1630.070	1311.199	-355.375	1629.881	1311.387	-301.604	1669.943	1242.052	-303.391	1771.346	624.986	-221.280	1567.672	548.910	-497.247	1698.605	655.318	-160.821	1509.645	601.651	-439.328	1715.511	569.096	-155.430	1521.576	515.481	-421.116	1493.734	210.254	-84.198	1588.700	178.836	-311.369	1501.616	216.067	-126.842	1548.013	182.931	-319.552	1549.723	63.567	-157.855	1580.217	41.423	-346.373
	28	0.49167	1545.091	825.671	-293.068	1539.148	807.826	-215.279	1523.970	808.885	-366.644	1670.159	448.316	-182.173	1537.202	427.201	-340.866	1499.255	126.302	-193.532	1477.377	67.024	-307.427	1625.221	877.925	-296.811	1633.150	877.174	-178.771	1617.291	878.675	-414.851	1434.891	946.694	-249.014	1427.271	944.039	-303.710	1676.057	455.734	-124.952	1540.911	423.429	-398.624	1673.561	442.526	-239.479	1554.594	438.469	-282.560	1485.047	132.542	-156.664	1464.000	65.748	-345.102	1513.059	128.594	-226.422	1488.839	76.289	-282.625	1511.765	1379.544	-292.138	1643.048	1318.035	-250.258	1635.947	1310.746	-355.470	1635.680	1311.028	-302.003	1675.855	1241.678	-303.586	1778.427	627.681	-221.528	1570.841	548.403	-497.051	1705.388	657.304	-160.857	1513.948	601.843	-438.959	1723.173	571.114	-155.721	1524.424	515.582	-421.589	1511.893	205.553	-85.006	1589.499	178.280	-310.986	1518.772	212.013	-127.586	1548.005	182.677	-319.509	1572.356	61.688	-159.105	1580.253	41.407	-346.314
	29	0.50000	1550.236	825.144	-292.840	1544.329	807.638	-215.449	1529.059	808.489	-366.806	1679.907	449.455	-183.276	1539.109	427.021	-340.688	1519.658	121.620	-194.404	1477.505	66.950	-307.228	1630.377	877.591	-297.132	1638.380	877.005	-179.069	1622.374	878.178	-415.196	1440.111	946.389	-249.202	1432.670	943.796	-303.942	1685.602	456.754	-126.020	1542.854	423.165	-398.438	1683.465	443.543	-240.158	1556.473	437.830	-282.651	1505.483	127.294	-157.433	1464.180	65.727	-344.923	1533.693	124.179	-227.208	1489.346	76.167	-282.378	1518.030	1379.474	-292.674	1648.704	1317.396	-250.574	1641.263	1310.133	-356.229	1641.455	1310.655	-302.346	1680.898	1240.834	-304.223	1785.365	630.214	-221.729	1573.899	547.914	-496.858	1711.780	658.839	-161.092	1517.893	601.703	-438.680	1731.022	572.533	-156.099	1527.172	515.863	-421.580	1530.286	200.932	-85.738	1590.217	177.755	-310.650	1536.996	207.722	-128.344	1548.733	182.720	-319.081	1595.074	60.006	-160.315	1580.237	41.413	-346.303
	30	0.50833	1555.145	824.464	-293.037	1549.555	807.414	-215.628	1534.227	808.094	-366.980	1689.442	450.525	-184.408	1540.997	426.858	-340.535	1540.182	117.086	-195.194	1477.620	66.886	-307.087	1635.591	877.249	-297.425	1643.641	876.797	-179.326	1627.540	877.701	-415.524	1445.386	946.044	-249.353	1438.083	943.542	-304.137	1694.926	457.687	-127.114	1544.731	422.918	-398.280	1692.908	444.789	-241.344	1558.700	438.175	-282.040	1526.086	122.197	-158.111	1464.352	65.718	-344.804	1555.350	118.952	-227.544	1489.329	75.908	-282.300	1524.119	1379.262	-293.074	1654.393	1316.907	-250.793	1646.844	1309.855	-357.023	1647.184	1310.270	-302.626	1686.335	1240.355	-304.905	1792.156	632.566	-221.891	1576.841	547.445	-496.665	1718.051	660.217	-161.243	1521.016	601.447	-438.677	1738.572	573.916	-156.621	1529.830	516.004	-421.320	1548.854	196.433	-86.401	1590.861	177.261	-310.352	1555.965	202.928	-129.168	1549.725	182.213	-318.356	1617.844	58.571	-161.478	1580.176	41.436	-346.325
	31	0.51667	1560.406	824.077	-293.371	1554.826	807.155	-215.806	1539.471	807.694	-367.156	1698.724	451.513	-185.567	1542.850	426.693	-340.404	1560.783	112.734	-195.908	1477.716	66.862	-306.981	1640.862	876.893	-297.685	1648.937	876.552	-179.539	1632.787	877.235	-415.832	1450.720	945.674	-249.482	1443.490	943.274	-304.296	1703.990	458.519	-128.233	1546.538	422.671	-398.147	1701.401	446.197	-242.479	1561.393	438.990	-281.373	1546.805	117.289	-158.708	1464.506	65.747	-344.720	1575.515	114.902	-228.412	1489.371	75.595	-282.432	1530.041	1378.812	-293.445	1660.124	1316.734	-251.056	1652.748	1309.425	-357.151	1652.871	1309.846	-302.840	1692.214	1240.080	-304.868	1798.799	634.710	-222.017	1579.687	546.998	-496.469	1724.377	661.188	-160.929	1523.803	601.379	-438.896	1745.768	575.367	-156.947	1532.589	516.112	-421.092	1567.533	192.097	-86.990	1591.448	176.793	-310.089	1574.139	198.490	-129.903	1550.140	180.536	-316.985	1640.630	57.423	-162.580	1580.082	41.467	-346.360
